<svg width="93" height="23" viewBox="0 0 93 23" fill="none" xmlns="http://www.w3.org/2000/svg">
<g id="Resource">
<path id="Vector" d="M91.6784 10.2913C91.8856 10.2732 92.0534 10.3548 92.1817 10.5364C92.326 10.7165 92.4127 10.9739 92.442 11.3086C92.4922 11.8824 92.4 12.3884 92.1652 12.8265C91.7789 13.5509 91.2359 14.1365 90.5362 14.5832C89.8524 15.0285 89.0084 15.295 88.0042 15.3829C86.4741 15.5168 85.2469 15.1664 84.3226 14.3318C83.3969 13.4812 82.8658 12.2749 82.7291 10.7129C82.6329 9.61307 82.7748 8.57275 83.1547 7.5919C83.5333 6.59511 84.1046 5.78223 84.8687 5.15324C85.6487 4.52286 86.5568 4.16234 87.5928 4.0717C88.5173 3.99082 89.2829 4.20491 89.8895 4.71397C90.4948 5.2071 90.8386 5.92386 90.9209 6.86427C91.0171 7.96407 90.7016 8.94731 89.9743 9.81399C89.2617 10.6633 87.9772 11.4021 86.1208 12.0303C86.5675 12.73 87.2451 13.0401 88.1537 12.9606C88.8072 12.9035 89.3279 12.7053 89.7158 12.3662C90.1197 12.0257 90.5692 11.4725 91.0643 10.7064C91.2346 10.4506 91.4393 10.3122 91.6784 10.2913ZM87.3914 6.45031C86.8016 6.50191 86.3295 6.88852 85.9751 7.61016C85.6365 8.33041 85.5098 9.17667 85.5949 10.149L85.5991 10.1968C86.5199 9.89135 87.2318 9.49179 87.7347 8.99808C88.2376 8.50437 88.4632 7.96264 88.4117 7.3729C88.3852 7.07005 88.2766 6.83864 88.0859 6.67864C87.9098 6.50132 87.6783 6.42521 87.3914 6.45031Z" fill="#403F3D"/>
<path id="Vector_2" d="M79.2976 16.1446C77.7356 16.2813 76.4779 15.9497 75.5245 15.1497C74.5857 14.3324 74.0529 13.1985 73.926 11.7481C73.813 10.457 73.969 9.30303 74.394 8.28612C74.819 7.26921 75.4149 6.4622 76.1818 5.86509C76.9487 5.26798 77.7784 4.93038 78.671 4.85228C79.5477 4.77559 80.2481 4.97932 80.7723 5.46347C81.311 5.9303 81.6159 6.57015 81.6871 7.38305C81.7456 8.05249 81.6437 8.63158 81.3813 9.12031C81.1348 9.60764 80.7725 9.87223 80.2944 9.91406C79.9915 9.94056 79.7382 9.89045 79.5344 9.76373C79.3465 9.63562 79.2414 9.44405 79.2191 9.18902C79.2093 9.07745 79.2141 8.94854 79.2334 8.8023C79.2527 8.65606 79.2676 8.55036 79.278 8.48521C79.3367 8.23915 79.357 8.01252 79.3389 7.80531C79.3208 7.5981 79.2511 7.44359 79.1297 7.34178C79.0243 7.23857 78.876 7.19533 78.6847 7.21207C78.3181 7.24414 77.9901 7.44148 77.7006 7.8041C77.4097 8.15077 77.193 8.6114 77.0506 9.18601C76.9081 9.76061 76.8661 10.3826 76.9247 11.0521C77.0865 12.901 77.9723 13.7551 79.5821 13.6142C80.2356 13.557 80.9181 13.2805 81.6296 12.7846C82.3556 12.2714 83.0469 11.5444 83.7034 10.6036C83.8752 10.3637 84.0806 10.2333 84.3197 10.2124C84.5269 10.1942 84.6946 10.2759 84.8229 10.4574C84.9672 10.6375 85.054 10.895 85.0832 11.2297C85.1362 11.8354 85.028 12.3427 84.7587 12.7518C84.0904 13.7418 83.2526 14.5378 82.2452 15.1399C81.2524 15.7247 80.2699 16.0596 79.2976 16.1446Z" fill="#403F3D"/>
<path id="Vector_3" d="M65.548 17.3476C64.9423 17.4006 64.4841 17.1195 64.1733 16.5042C63.8784 15.8876 63.6696 14.8779 63.5469 13.4753C63.3656 11.4032 63.4882 9.40892 63.9148 7.49245C64.0179 7.01766 64.2197 6.66272 64.5203 6.42762C64.8355 6.17519 65.288 6.02318 65.8778 5.97158C66.1965 5.94369 66.4232 5.96402 66.5577 6.03256C66.6921 6.10109 66.7692 6.24694 66.7887 6.47009C66.811 6.72511 66.7416 7.30938 66.5806 8.22289C66.477 8.8744 66.3983 9.44342 66.3445 9.92996C66.2907 10.4165 66.2626 11.0132 66.2602 11.7201C66.6663 10.3033 67.1584 9.13601 67.7366 8.21812C68.3148 7.30023 68.8987 6.6308 69.4883 6.20981C70.0938 5.78743 70.6595 5.55323 71.1855 5.50722C72.2215 5.41657 72.7849 5.88927 72.8755 6.92532C72.8936 7.13252 72.8658 7.64088 72.7921 8.45039C72.7204 9.09911 72.6915 9.50316 72.7054 9.66256C72.7542 10.2204 72.9779 10.4819 73.3764 10.4471C73.8227 10.408 74.3658 10.0072 75.0057 9.24448C75.1948 9.01914 75.4009 8.89671 75.6241 8.87719C75.8313 8.85906 75.9991 8.94075 76.1274 9.12226C76.2702 9.28643 76.3549 9.51994 76.3814 9.82279C76.433 10.4125 76.314 10.8887 76.0245 11.2513C75.6187 11.7526 75.1275 12.1971 74.5511 12.5848C73.9893 12.9552 73.3736 13.1697 72.7042 13.2282C71.8594 13.3021 71.1951 13.1434 70.7111 12.7521C70.2431 12.3594 69.977 11.7965 69.9129 11.0633C69.892 10.8242 69.895 10.583 69.9219 10.3397C69.9258 10.0182 69.923 9.80159 69.9132 9.69002C69.8909 9.43499 69.7921 9.31515 69.6167 9.33049C69.3777 9.35141 69.0826 9.65026 68.7315 10.2271C68.395 10.7865 68.0738 11.5213 67.768 12.4314C67.4621 13.3415 67.2322 14.2932 67.0782 15.2864C66.9684 16.0509 66.8058 16.5791 66.5904 16.8709C66.3896 17.1455 66.0421 17.3044 65.548 17.3476Z" fill="#403F3D"/>
<path id="Vector_4" d="M55.2452 18.2488C54.5279 18.3116 53.9096 18.0364 53.3902 17.4233C52.8853 16.7929 52.5897 15.9836 52.5032 14.9954C52.3986 13.8 52.3828 12.7012 52.4557 11.699C52.5273 10.6809 52.6975 9.59792 52.9665 8.45011C53.0841 7.95799 53.2772 7.59578 53.546 7.36347C53.8148 7.13116 54.26 6.98781 54.8816 6.93343C55.2323 6.90275 55.4762 6.93762 55.6135 7.03804C55.7667 7.13706 55.8531 7.29815 55.8726 7.52129C55.8838 7.64881 55.8337 8.08683 55.7226 8.83537C55.6148 9.43906 55.534 9.98418 55.4802 10.4707C55.3078 12.1722 55.246 13.3019 55.2948 13.8598C55.3241 14.1945 55.3849 14.4301 55.4771 14.5666C55.568 14.6871 55.7011 14.7397 55.8764 14.7244C56.1155 14.7035 56.3895 14.4386 56.6983 13.9297C57.023 13.4195 57.3421 12.6608 57.6555 11.6536C57.9849 10.6451 58.2788 9.41479 58.5372 7.96274C58.6229 7.47341 58.7842 7.11398 59.0211 6.88446C59.2739 6.65355 59.6633 6.51508 60.1893 6.46906C60.5559 6.43699 60.8151 6.46249 60.967 6.54558C61.1174 6.61272 61.203 6.76584 61.224 7.00493C61.2588 7.4034 61.1551 8.51267 60.9128 10.3327C60.645 12.412 60.532 13.6907 60.5739 14.1688C60.6004 14.4717 60.685 14.7052 60.8279 14.8694C60.9693 15.0176 61.1437 15.0827 61.3509 15.0645C61.6697 15.0366 62.0275 14.8126 62.4244 14.3924C62.8358 13.9549 63.3698 13.2657 64.0263 12.3249C64.198 12.0851 64.4035 11.9547 64.6425 11.9337C64.8498 11.9156 65.0175 11.9973 65.1458 12.1788C65.2901 12.3589 65.3768 12.6163 65.4061 12.9511C65.4619 13.5886 65.3537 14.096 65.0815 14.4731C64.4701 15.3779 63.7896 16.1361 63.04 16.7477C62.3064 17.358 61.4375 17.707 60.4334 17.7949C59.6683 17.8618 59.0766 17.6165 58.6585 17.0588C58.2562 16.4997 58.0084 15.6862 57.9149 14.6183C57.7388 15.7259 57.4055 16.5982 56.9152 17.2354C56.4235 17.8566 55.8668 18.1944 55.2452 18.2488Z" fill="#403F3D"/>
<path id="Vector_5" d="M53.5606 10.8796C53.7678 10.8614 53.9362 10.9511 54.0659 11.1485C54.1956 11.346 54.2744 11.6041 54.3023 11.9229C54.3692 12.688 54.1779 13.1625 53.7282 13.3463C52.8011 13.7647 51.7659 14.048 50.6225 14.1963C50.4367 15.5616 49.9332 16.6898 49.1117 17.5808C48.2888 18.4559 47.3115 18.9429 46.1799 19.0419C45.2235 19.1256 44.3824 18.9663 43.6566 18.564C42.9467 18.1603 42.383 17.5913 41.9654 16.8569C41.5478 16.1225 41.3 15.309 41.2219 14.4164C41.1159 13.205 41.2529 12.1089 41.6328 11.1281C42.0114 10.1313 42.5841 9.33435 43.351 8.73724C44.1165 8.12419 44.9933 7.77444 45.9816 7.68798C47.1929 7.582 48.2022 7.91932 49.0093 8.69994C49.8309 9.46324 50.3592 10.453 50.5941 11.6691C51.339 11.5558 52.2177 11.3183 53.23 10.9567C53.3547 10.9136 53.4649 10.8879 53.5606 10.8796ZM46.1494 16.4908C46.6595 16.4462 47.0797 16.2007 47.41 15.7542C47.7563 15.3063 47.959 14.6863 48.0182 13.8941C47.4948 13.6026 47.0739 13.1977 46.7555 12.6795C46.4531 12.1599 46.2754 11.5972 46.2224 10.9916C46.2001 10.7365 46.2017 10.4794 46.2272 10.2202L46.1076 10.2307C45.4701 10.2864 44.9633 10.644 44.5873 11.3032C44.2259 11.9452 44.094 12.824 44.1916 13.9398C44.2683 14.8164 44.4942 15.4712 44.8694 15.9042C45.2605 16.3357 45.6872 16.5313 46.1494 16.4908Z" fill="#403F3D"/>
<path id="Vector_6" d="M36.3093 20.4354C35.4805 20.508 34.8262 20.3725 34.3464 20.029C33.8826 19.6841 33.6298 19.2726 33.5879 18.7944C33.5517 18.38 33.6717 18.0081 33.9481 17.6787C34.2244 17.3494 34.6575 17.1589 35.2472 17.1073C35.4544 17.0892 35.6956 17.0922 35.9708 17.1163C36.2604 17.1231 36.4777 17.1282 36.6226 17.1316C36.5704 16.7185 36.4406 16.3364 36.2332 15.9851C36.0417 15.6325 35.8038 15.3 35.5195 14.9876C35.2338 14.6592 34.9682 14.3773 34.7228 14.1418C34.3109 15.1254 33.8851 15.9497 33.4454 16.6145C33.0216 17.278 32.5472 17.9137 32.0222 18.5218C31.7604 18.8338 31.4701 19.0038 31.1513 19.0316C30.8963 19.054 30.6814 18.9844 30.5067 18.823C30.3306 18.6457 30.2307 18.4216 30.207 18.1506C30.1791 17.8318 30.2648 17.5272 30.4643 17.2367L30.7416 16.827C31.5235 15.6664 32.1068 14.7159 32.4918 13.9756C32.7223 13.4896 32.9874 12.8481 33.2871 12.0509C33.5853 11.2379 33.8735 10.4016 34.1517 9.54204C34.3932 8.81423 34.9921 8.40848 35.9484 8.32481C36.3947 8.28577 36.709 8.29842 36.8913 8.36278C37.0736 8.42713 37.1725 8.54698 37.1878 8.72231C37.1962 8.81794 37.1775 8.97215 37.1319 9.18494C37.0863 9.39773 37.0167 9.6126 36.9233 9.82957C36.6866 10.4285 36.5857 10.9272 36.6205 11.3257C36.6415 11.5647 36.7442 11.8208 36.9286 12.0937C37.1291 12.3653 37.4235 12.7009 37.8118 13.1006C38.3804 13.7254 38.8131 14.2657 39.11 14.7216C39.4214 15.1601 39.6015 15.6583 39.6503 16.2162C39.6642 16.3756 39.6678 16.6001 39.6611 16.8898C40.4156 16.5187 41.2617 15.6335 42.1993 14.2345C42.371 13.9946 42.5765 13.8642 42.8155 13.8433C43.0227 13.8252 43.1905 13.9069 43.3188 14.0884C43.4631 14.2685 43.5498 14.5259 43.5791 14.8606C43.6321 15.4663 43.5239 15.9737 43.2545 16.3827C42.544 17.4407 41.8382 18.185 41.1371 18.6158C40.4505 19.0292 39.5747 19.2985 38.5095 19.4238C37.9194 20.0215 37.186 20.3587 36.3093 20.4354Z" fill="#403F3D"/>
<path id="Vector_7" d="M32.6171 14.7357C32.8243 14.7175 32.9921 14.7992 33.1204 14.9807C33.2646 15.1608 33.3514 15.4183 33.3807 15.753C33.4365 16.3905 33.3283 16.8979 33.0561 17.2751C32.5291 18.0439 31.7502 18.7786 30.7193 19.4791C29.7044 20.1782 28.5833 20.5815 27.3559 20.6888C25.6823 20.8353 24.3436 20.4947 23.3396 19.667C22.3356 18.8394 21.7646 17.6365 21.6266 16.0586C21.5304 14.9588 21.6722 13.9185 22.0522 12.9376C22.4308 11.9408 23.0021 11.1279 23.7662 10.4989C24.5462 9.86856 25.4542 9.50805 26.4903 9.4174C27.4147 9.33652 28.1803 9.55061 28.787 10.0597C29.3923 10.5528 29.7361 11.2696 29.8183 12.21C29.9145 13.3098 29.599 14.293 28.8718 15.1597C28.1591 16.009 26.8826 16.7471 25.0422 17.3739C25.5048 18.0722 26.294 18.3726 27.4098 18.275C28.127 18.2122 28.9183 17.894 29.7836 17.3204C30.6634 16.7295 31.4025 15.9983 32.0009 15.1269C32.1726 14.887 32.378 14.7566 32.6171 14.7357ZM26.2888 11.796C25.6991 11.8476 25.227 12.2342 24.8725 12.9559C24.534 13.6761 24.4073 14.5224 24.4923 15.4947L24.4965 15.5425C25.4174 15.2371 26.1293 14.8375 26.6322 14.3438C27.1351 13.8501 27.3607 13.3083 27.3091 12.7186C27.2826 12.4158 27.174 12.1843 26.9834 12.0243C26.8072 11.847 26.5757 11.7709 26.2888 11.796Z" fill="#403F3D"/>
<path id="Vector_8" d="M23.6906 15.5167C23.8978 15.4986 24.0656 15.5803 24.1939 15.7618C24.3382 15.9419 24.4249 16.1993 24.4542 16.5341C24.5086 17.1557 24.4004 17.6631 24.1296 18.0561C23.4454 19.0476 22.7351 19.8324 21.9987 20.4108C21.261 20.9733 20.3581 21.3012 19.2902 21.3946C18.2541 21.4853 17.3451 21.2837 16.5631 20.79C15.797 20.2949 15.028 19.3985 14.256 18.1009C13.6351 17.063 13.151 16.3023 12.8035 15.8188C12.4547 15.3193 12.119 14.9712 11.7967 14.7745C11.4903 14.5765 11.1198 14.4724 10.6852 14.4622C10.6508 14.8025 10.5595 15.8705 10.4114 17.6663C10.3537 18.4744 10.3165 18.9675 10.3 19.1456C10.2256 20.1319 9.97238 20.9089 9.54023 21.4767C9.10668 22.0286 8.40376 22.3471 7.43148 22.4321C6.36356 22.5256 5.38799 22.2977 4.50477 21.7486C3.63609 21.1822 2.9298 20.3606 2.38589 19.2839C1.84059 18.1913 1.50518 16.9277 1.37968 15.4932C1.1454 12.8154 1.40544 10.4638 2.15978 8.43835C2.93006 6.4115 4.10738 4.81482 5.69174 3.64829C7.29064 2.46443 9.18989 1.77628 11.3895 1.58384C12.9196 1.44997 14.223 1.56883 15.2994 1.94043C16.3759 2.31202 17.1968 2.88265 17.762 3.65231C18.3432 4.42058 18.6784 5.31477 18.7676 6.33487C18.8457 7.22746 18.7073 8.12294 18.3522 9.02131C18.0117 9.90234 17.4476 10.7066 16.66 11.434C15.8724 12.1614 14.8869 12.7375 13.7034 13.1622C14.4866 13.3025 15.1057 13.5856 15.5605 14.0116C16.0154 14.4376 16.4891 15.0787 16.9816 15.9351C17.5115 16.8524 18.0112 17.5153 18.4806 17.924C18.966 18.3312 19.4955 18.5098 20.0693 18.4596C20.5794 18.4149 21.0509 18.205 21.4838 17.8299C21.9154 17.4388 22.4456 16.7981 23.0744 15.9079C23.2461 15.6681 23.4515 15.5377 23.6906 15.5167ZM7.38374 14.727C6.84181 14.7744 6.45609 14.6797 6.22657 14.4428C6.01299 14.2045 5.89225 13.9259 5.86436 13.6071C5.8309 13.2246 5.92394 12.9113 6.14351 12.6672C6.37901 12.4218 6.65615 12.2851 6.97494 12.2572L7.57265 12.2049C7.69102 10.6206 7.81227 9.2528 7.93641 8.1016C8.05297 7.04743 8.6771 6.47084 9.80877 6.37183C10.7173 6.29235 11.2071 6.65905 11.2782 7.47194C11.2936 7.64727 11.2975 7.78346 11.2899 7.88048L10.9199 11.9121C11.7764 11.789 12.5393 11.5134 13.2085 11.0855C13.8937 10.6561 14.4149 10.0966 14.7722 9.40679C15.1454 8.71564 15.2957 7.95564 15.2232 7.12681C15.1353 6.12264 14.7236 5.36364 13.988 4.84979C13.2524 4.33595 12.2232 4.1369 10.9002 4.25264C9.33819 4.3893 8.0016 4.89974 6.89043 5.78394C5.79381 6.65082 4.98568 7.87792 4.46605 9.46525C3.94503 11.0366 3.78003 12.9142 3.97108 15.0978C4.06033 16.1179 4.24063 16.9855 4.51198 17.7006C4.78334 18.4157 5.08648 18.9432 5.42139 19.2834C5.75631 19.6235 6.05925 19.7817 6.33021 19.7579C6.53742 19.7398 6.69572 19.6216 6.8051 19.4032C6.93043 19.1834 7.01272 18.839 7.05197 18.3698L7.38374 14.727Z" fill="#403F3D"/>
</g>
</svg>
